<svg xmlns="http://www.w3.org/2000/svg" width="880" height="568.943"><g transform="translate(-643.5 -426.503)"><rect width="873" height="560" fill="#f2f2f2" rx="8" transform="translate(647.5 431.453)"/><path fill="#090814" d="M668.757 426.503h829.486a25.285 25.285 0 0 1 25.257 25.257v518.429a25.285 25.285 0 0 1-25.257 25.257H668.757a25.285 25.285 0 0 1-25.257-25.257V451.76a25.285 25.285 0 0 1 25.257-25.257m829.486 560.967a17.3 17.3 0 0 0 17.281-17.281V451.76a17.3 17.3 0 0 0-17.281-17.281H668.757a17.3 17.3 0 0 0-17.281 17.281v518.429a17.3 17.3 0 0 0 17.281 17.281Z"/><path fill="#0E7FF2" d="M671.261 433.149h824.453a21.2 21.2 0 0 1 21.14 21.269v31.9H650.121v-31.9a21.2 21.2 0 0 1 21.14-21.269"/><path fill="#d6d6e3" d="M860.177 486.322h21.269V987.47h-21.269z"/><rect width="9" height="93" fill="#0E7FF2" rx="2" transform="translate(866.5 504.453)"/><rect width="170" height="23" fill="#d6d6e3" rx="2" transform="translate(668.5 514.453)"/><rect width="170" height="23" fill="#d6d6e3" rx="2" transform="translate(668.5 557.453)"/><rect width="170" height="19" fill="#d6d6e3" rx="2" transform="translate(668.5 602.453)"/><rect width="170" height="19" fill="#d6d6e3" rx="2" transform="translate(668.5 644.453)"/><rect width="170" height="20" fill="#d6d6e3" rx="2" transform="translate(668.5 685.453)"/><rect width="170" height="22" fill="#d6d6e3" rx="2" transform="translate(668.5 727.453)"/><rect width="170" height="22" fill="#d6d6e3" rx="2" transform="translate(668.5 769.453)"/><path fill="#0E7FF2" d="M1064.681 600.643H952.738a7.95 7.95 0 0 1-7.487-8.332v-68.412a7.95 7.95 0 0 1 7.487-8.332h13.724a7.06 7.06 0 0 1 5.035 2.167l14.888 11.828a4.97 4.97 0 0 0 3.552 1.531h75.443a7.13 7.13 0 0 1 5.331 2.483 8.85 8.85 0 0 1 2.153 5.969l-.694 52.888a7.976 7.976 0 0 1-7.489 8.21m382.84 0h-111.943a7.95 7.95 0 0 1-7.487-8.332v-68.412a7.95 7.95 0 0 1 7.487-8.332h13.724a7.06 7.06 0 0 1 5.035 2.167l14.888 11.828a4.97 4.97 0 0 0 3.552 1.531h75.443a7.13 7.13 0 0 1 5.331 2.483 8.85 8.85 0 0 1 2.153 5.969l-.694 52.888a7.976 7.976 0 0 1-7.489 8.21m-191.42 0h-111.943a7.95 7.95 0 0 1-7.487-8.332v-68.412a7.95 7.95 0 0 1 7.487-8.332h13.724a7.06 7.06 0 0 1 5.035 2.167l14.888 11.828a4.97 4.97 0 0 0 3.552 1.531h75.443a7.13 7.13 0 0 1 5.331 2.483 8.85 8.85 0 0 1 2.153 5.969l-.694 52.888a7.976 7.976 0 0 1-7.489 8.21m-191.42 116.979H952.738a7.95 7.95 0 0 1-7.487-8.332v-68.412a7.95 7.95 0 0 1 7.487-8.332h13.724a7.06 7.06 0 0 1 5.035 2.167l14.888 11.828a4.97 4.97 0 0 0 3.552 1.531h75.443a7.13 7.13 0 0 1 5.331 2.483 8.85 8.85 0 0 1 2.153 5.969l-.694 52.888a7.976 7.976 0 0 1-7.489 8.21m382.84 0h-111.943a7.95 7.95 0 0 1-7.487-8.332v-68.412a7.95 7.95 0 0 1 7.487-8.332h13.724a7.06 7.06 0 0 1 5.035 2.167l14.888 11.828a4.97 4.97 0 0 0 3.552 1.531h75.443a7.13 7.13 0 0 1 5.331 2.483 8.85 8.85 0 0 1 2.153 5.969l-.694 52.888a7.976 7.976 0 0 1-7.489 8.21m-191.42 0h-111.943a7.95 7.95 0 0 1-7.487-8.332v-68.412a7.95 7.95 0 0 1 7.487-8.332h13.724a7.06 7.06 0 0 1 5.035 2.167l14.888 11.828a4.97 4.97 0 0 0 3.552 1.531h75.443a7.13 7.13 0 0 1 5.331 2.483 8.85 8.85 0 0 1 2.153 5.969l-.694 52.888a7.976 7.976 0 0 1-7.489 8.21m-191.42 116.979H952.738a7.95 7.95 0 0 1-7.487-8.332v-68.412a7.95 7.95 0 0 1 7.487-8.332h13.724a7.06 7.06 0 0 1 5.035 2.167l14.888 11.828a4.97 4.97 0 0 0 3.552 1.531h75.443a7.13 7.13 0 0 1 5.331 2.483 8.85 8.85 0 0 1 2.153 5.969l-.694 52.888a7.976 7.976 0 0 1-7.489 8.21"/></g></svg>