<svg xmlns="http://www.w3.org/2000/svg" width="606.627" height="720"><g transform="translate(-656.687 -180)"><path fill="#3f3d56" d="M1154.998 295.34a24.72 24.72 0 0 0-22.611-15.125H681.149a24.474 24.474 0 0 0-24.462 24.461v570.863A24.474 24.474 0 0 0 681.148 900h451.259a24.493 24.493 0 0 0 24.461-24.461V304.676a24 24 0 0 0-1.854-9.335Zm-3.578 580.2a19.05 19.05 0 0 1-19.033 19.027H681.149a19.03 19.03 0 0 1-19.029-19.02V304.679a19.055 19.055 0 0 1 19.029-19.029h451.258a19.12 19.12 0 0 1 17.663 11.97 21 21 0 0 1 .715 2.147 19 19 0 0 1 .651 4.912Z"/><path fill="#3f3d56" d="M1060.829 414.994H924.908a10.874 10.874 0 1 1 0-21.748h135.921a10.874 10.874 0 1 1 0 21.748m0 57.086H924.908a10.874 10.874 0 0 1 0-21.748h135.921a10.874 10.874 0 1 1 0 21.748"/><path fill="#0E7FF2" d="M855.169 504.585h-99.33a12.247 12.247 0 0 1-12.235-12.234V375.134a12.247 12.247 0 0 1 12.234-12.234h99.33a12.247 12.247 0 0 1 12.236 12.234v117.217a12.247 12.247 0 0 1-12.235 12.234"/><path fill="#ccc" d="M1059.887 588.973h-307.18a10.874 10.874 0 1 1 0-21.748h307.18a10.874 10.874 0 0 1 0 21.748m0 57.085h-307.18a10.874 10.874 0 0 1 0-21.748h307.18a10.874 10.874 0 1 1 0 21.748m0 57.086h-307.18a10.874 10.874 0 0 1 0-21.748h307.18a10.874 10.874 0 1 1 0 21.748m0 57.087h-307.18a10.874 10.874 0 0 1 0-21.748h307.18a10.874 10.874 0 1 1 0 21.748m0 57.086h-307.18a10.874 10.874 0 1 1 0-21.748h307.18a10.874 10.874 0 0 1 0 21.748"/><circle cx="104.941" cy="104.941" r="104.941" fill="#0E7FF2" transform="translate(1053.432 180)"/><path fill="#fff" d="M1125.845 317.465a45.73 45.73 0 0 1-13.472-32.525 46.06 46.06 0 0 1 46.009-46 46.054 46.054 0 0 1 45.991 46 46.05 46.05 0 0 1-45.991 46 45.7 45.7 0 0 1-32.537-13.475m-4.272-32.525a36.56 36.56 0 0 0 10.777 26.016 36.6 36.6 0 0 0 26.029 10.786 36.84 36.84 0 0 0 36.8-36.8 36.84 36.84 0 0 0-36.8-36.8 36.844 36.844 0 0 0-36.806 36.798m32.2 20.716v-.043a4.6 4.6 0 0 1 4.608-4.6 4.6 4.6 0 0 1 4.595 4.6v.043a4.6 4.6 0 0 1-4.595 4.606 4.6 4.6 0 0 1-4.608-4.601Zm0-13.843v-27.6a4.6 4.6 0 0 1 4.608-4.6 4.6 4.6 0 0 1 4.595 4.6v27.6a4.6 4.6 0 0 1-4.595 4.606 4.6 4.6 0 0 1-4.608-4.601Z"/></g></svg>